# MagicaVoxel @ Ephtracy

# group
o Handle 2

# material
mtllib SlotMachine-0-Handle 2.mtl
usemtl SlotMachine_d

# normals
vn 0 0 1
vn 0 0 -1
vn 1 0 0
vn -1 0 0
vn 0 -1 0
vn 0 1 0

# texcoords
vt 0.255859 0.5
vt 0.263672 0.5
vt 0.271484 0.5
vt 0.279297 0.5
vt 0.673828 0.5
vt 0.685547 0.5

# verts
v 0.9 5.9 -2.1
v 0.8 5.9 -2.1
v 1 6 -2.1
v 0.9 6 -2.1
v 0.8 6 -2.1
v 0.7 6 -2.1
v 1 6.1 -2.1
v 0.9 6.1 -2.1
v 0.8 6.1 -2.1
v 0.7 6.1 -2.1
v 0.9 6.2 -2.1
v 0.8 6.2 -2.1
v -0.4 4.6 -2.2
v -0.5 4.6 -2.2
v -0.3 4.7 -2.2
v -0.4 4.7 -2.2
v -0.5 4.7 -2.2
v -0.6 4.7 -2.2
v -0.2 4.8 -2.2
v -0.3 4.8 -2.2
v -0.4 4.8 -2.2
v -0.5 4.8 -2.2
v -0.6 4.8 -2.2
v -0.1 4.9 -2.2
v -0.2 4.9 -2.2
v -0.3 4.9 -2.2
v -0.4 4.9 -2.2
v -0.5 4.9 -2.2
v 0 5 -2.2
v -0.1 5 -2.2
v -0.2 5 -2.2
v -0.3 5 -2.2
v -0.4 5 -2.2
v 0.1 5.1 -2.2
v 0 5.1 -2.2
v -0.1 5.1 -2.2
v -0.2 5.1 -2.2
v -0.3 5.1 -2.2
v 0.2 5.2 -2.2
v 0.1 5.2 -2.2
v 0 5.2 -2.2
v -0.1 5.2 -2.2
v -0.2 5.2 -2.2
v 0.3 5.3 -2.2
v 0.2 5.3 -2.2
v 0.1 5.3 -2.2
v 0 5.3 -2.2
v -0.1 5.3 -2.2
v 0.4 5.4 -2.2
v 0.3 5.4 -2.2
v 0.2 5.4 -2.2
v 0.1 5.4 -2.2
v 0 5.4 -2.2
v 0.5 5.5 -2.2
v 0.4 5.5 -2.2
v 0.3 5.5 -2.2
v 0.2 5.5 -2.2
v 0.1 5.5 -2.2
v 0.6 5.6 -2.2
v 0.5 5.6 -2.2
v 0.4 5.6 -2.2
v 0.3 5.6 -2.2
v 0.2 5.6 -2.2
v 0.7 5.7 -2.2
v 0.6 5.7 -2.2
v 0.5 5.7 -2.2
v 0.4 5.7 -2.2
v 0.3 5.7 -2.2
v 0.8 5.8 -2.2
v 0.7 5.8 -2.2
v 0.6 5.8 -2.2
v 0.5 5.8 -2.2
v 0.4 5.8 -2.2
v 1 5.9 -2.2
v 0.9 5.9 -2.2
v 0.8 5.9 -2.2
v 0.7 5.9 -2.2
v 0.6 5.9 -2.2
v 0.5 5.9 -2.2
v 1 6 -2.2
v 0.9 6 -2.2
v 0.8 6 -2.2
v 0.7 6 -2.2
v 0.6 6 -2.2
v 1 6.1 -2.2
v 0.9 6.1 -2.2
v 0.8 6.1 -2.2
v 0.7 6.1 -2.2
v 1 6.2 -2.2
v 0.9 6.2 -2.2
v 0.8 6.2 -2.2
v 0.7 6.2 -2.2
v -0.5 4.6 -2.3
v -0.6 4.6 -2.3
v -0.5 4.7 -2.3
v -0.6 4.7 -2.3
v -0.4 4.6 -2.4
v -0.6 4.6 -2.4
v -0.3 4.7 -2.4
v -0.4 4.7 -2.4
v -0.5 4.7 -2.4
v -0.6 4.7 -2.4
v -0.2 4.8 -2.4
v -0.3 4.8 -2.4
v -0.4 4.8 -2.4
v -0.5 4.8 -2.4
v -0.6 4.8 -2.4
v -0.1 4.9 -2.4
v -0.2 4.9 -2.4
v -0.3 4.9 -2.4
v -0.4 4.9 -2.4
v -0.5 4.9 -2.4
v 0 5 -2.4
v -0.1 5 -2.4
v -0.2 5 -2.4
v -0.3 5 -2.4
v -0.4 5 -2.4
v 0.1 5.1 -2.4
v 0 5.1 -2.4
v -0.1 5.1 -2.4
v -0.2 5.1 -2.4
v -0.3 5.1 -2.4
v 0.2 5.2 -2.4
v 0.1 5.2 -2.4
v 0 5.2 -2.4
v -0.1 5.2 -2.4
v -0.2 5.2 -2.4
v 0.3 5.3 -2.4
v 0.2 5.3 -2.4
v 0.1 5.3 -2.4
v 0 5.3 -2.4
v -0.1 5.3 -2.4
v 0.4 5.4 -2.4
v 0.3 5.4 -2.4
v 0.2 5.4 -2.4
v 0.1 5.4 -2.4
v 0 5.4 -2.4
v 0.5 5.5 -2.4
v 0.4 5.5 -2.4
v 0.3 5.5 -2.4
v 0.2 5.5 -2.4
v 0.1 5.5 -2.4
v 0.6 5.6 -2.4
v 0.5 5.6 -2.4
v 0.4 5.6 -2.4
v 0.3 5.6 -2.4
v 0.2 5.6 -2.4
v 0.7 5.7 -2.4
v 0.6 5.7 -2.4
v 0.5 5.7 -2.4
v 0.4 5.7 -2.4
v 0.3 5.7 -2.4
v 0.8 5.8 -2.4
v 0.7 5.8 -2.4
v 0.6 5.8 -2.4
v 0.5 5.8 -2.4
v 0.4 5.8 -2.4
v 1 5.9 -2.4
v 0.9 5.9 -2.4
v 0.8 5.9 -2.4
v 0.7 5.9 -2.4
v 0.6 5.9 -2.4
v 0.5 5.9 -2.4
v 1 6 -2.4
v 0.9 6 -2.4
v 0.8 6 -2.4
v 0.7 6 -2.4
v 0.6 6 -2.4
v 1 6.1 -2.4
v 0.9 6.1 -2.4
v 0.8 6.1 -2.4
v 0.7 6.1 -2.4
v 1 6.2 -2.4
v 0.9 6.2 -2.4
v 0.8 6.2 -2.4
v 0.7 6.2 -2.4
v 0.9 5.9 -2.5
v 0.8 5.9 -2.5
v 1 6 -2.5
v 0.9 6 -2.5
v 0.8 6 -2.5
v 0.7 6 -2.5
v 1 6.1 -2.5
v 0.9 6.1 -2.5
v 0.8 6.1 -2.5
v 0.7 6.1 -2.5
v 0.9 6.2 -2.5
v 0.8 6.2 -2.5
v 1 6 -2.1
v 1 6.1 -2.1
v 1 5.9 -2.2
v 1 6 -2.2
v 1 6.1 -2.2
v 1 6.2 -2.2
v 1 5.9 -2.4
v 1 6 -2.4
v 1 6.1 -2.4
v 1 6.2 -2.4
v 1 6 -2.5
v 1 6.1 -2.5
v 0.9 5.9 -2.1
v 0.9 6 -2.1
v 0.9 6.1 -2.1
v 0.9 6.2 -2.1
v 0.9 5.9 -2.2
v 0.9 6 -2.2
v 0.9 6.1 -2.2
v 0.9 6.2 -2.2
v 0.9 5.9 -2.4
v 0.9 6 -2.4
v 0.9 6.1 -2.4
v 0.9 6.2 -2.4
v 0.9 5.9 -2.5
v 0.9 6 -2.5
v 0.9 6.1 -2.5
v 0.9 6.2 -2.5
v 0.8 5.8 -2.2
v 0.8 5.9 -2.2
v 0.8 5.8 -2.4
v 0.8 5.9 -2.4
v 0.7 5.7 -2.2
v 0.7 5.8 -2.2
v 0.7 5.7 -2.4
v 0.7 5.8 -2.4
v 0.6 5.6 -2.2
v 0.6 5.7 -2.2
v 0.6 5.6 -2.4
v 0.6 5.7 -2.4
v 0.5 5.5 -2.2
v 0.5 5.6 -2.2
v 0.5 5.5 -2.4
v 0.5 5.6 -2.4
v 0.4 5.4 -2.2
v 0.4 5.5 -2.2
v 0.4 5.4 -2.4
v 0.4 5.5 -2.4
v 0.3 5.3 -2.2
v 0.3 5.4 -2.2
v 0.3 5.3 -2.4
v 0.3 5.4 -2.4
v 0.2 5.2 -2.2
v 0.2 5.3 -2.2
v 0.2 5.2 -2.4
v 0.2 5.3 -2.4
v 0.1 5.1 -2.2
v 0.1 5.2 -2.2
v 0.1 5.1 -2.4
v 0.1 5.2 -2.4
v 0 5 -2.2
v 0 5.1 -2.2
v 0 5 -2.4
v 0 5.1 -2.4
v -0.1 4.9 -2.2
v -0.1 5 -2.2
v -0.1 4.9 -2.4
v -0.1 5 -2.4
v -0.2 4.8 -2.2
v -0.2 4.9 -2.2
v -0.2 4.8 -2.4
v -0.2 4.9 -2.4
v -0.3 4.7 -2.2
v -0.3 4.8 -2.2
v -0.3 4.7 -2.4
v -0.3 4.8 -2.4
v -0.4 4.6 -2.2
v -0.4 4.7 -2.2
v -0.4 4.6 -2.4
v -0.4 4.7 -2.4
v 0.8 5.9 -2.1
v 0.8 6 -2.1
v 0.8 6.1 -2.1
v 0.8 6.2 -2.1
v 0.8 5.9 -2.2
v 0.8 6 -2.2
v 0.8 6.1 -2.2
v 0.8 6.2 -2.2
v 0.8 5.9 -2.4
v 0.8 6 -2.4
v 0.8 6.1 -2.4
v 0.8 6.2 -2.4
v 0.8 5.9 -2.5
v 0.8 6 -2.5
v 0.8 6.1 -2.5
v 0.8 6.2 -2.5
v 0.7 6 -2.1
v 0.7 6.1 -2.1
v 0.7 6 -2.2
v 0.7 6.1 -2.2
v 0.7 6.2 -2.2
v 0.7 6 -2.4
v 0.7 6.1 -2.4
v 0.7 6.2 -2.4
v 0.7 6 -2.5
v 0.7 6.1 -2.5
v 0.6 5.9 -2.2
v 0.6 6 -2.2
v 0.6 5.9 -2.4
v 0.6 6 -2.4
v 0.5 5.8 -2.2
v 0.5 5.9 -2.2
v 0.5 5.8 -2.4
v 0.5 5.9 -2.4
v 0.4 5.7 -2.2
v 0.4 5.8 -2.2
v 0.4 5.7 -2.4
v 0.4 5.8 -2.4
v 0.3 5.6 -2.2
v 0.3 5.7 -2.2
v 0.3 5.6 -2.4
v 0.3 5.7 -2.4
v 0.2 5.5 -2.2
v 0.2 5.6 -2.2
v 0.2 5.5 -2.4
v 0.2 5.6 -2.4
v 0.1 5.4 -2.2
v 0.1 5.5 -2.2
v 0.1 5.4 -2.4
v 0.1 5.5 -2.4
v 0 5.3 -2.2
v 0 5.4 -2.2
v 0 5.3 -2.4
v 0 5.4 -2.4
v -0.1 5.2 -2.2
v -0.1 5.3 -2.2
v -0.1 5.2 -2.4
v -0.1 5.3 -2.4
v -0.2 5.1 -2.2
v -0.2 5.2 -2.2
v -0.2 5.1 -2.4
v -0.2 5.2 -2.4
v -0.3 5 -2.2
v -0.3 5.1 -2.2
v -0.3 5 -2.4
v -0.3 5.1 -2.4
v -0.4 4.9 -2.2
v -0.4 5 -2.2
v -0.4 4.9 -2.4
v -0.4 5 -2.4
v -0.5 4.6 -2.2
v -0.5 4.7 -2.2
v -0.5 4.8 -2.2
v -0.5 4.9 -2.2
v -0.5 4.6 -2.3
v -0.5 4.7 -2.3
v -0.5 4.8 -2.4
v -0.5 4.9 -2.4
v -0.6 4.7 -2.2
v -0.6 4.8 -2.2
v -0.6 4.6 -2.3
v -0.6 4.7 -2.3
v -0.6 4.6 -2.4
v -0.6 4.7 -2.4
v -0.6 4.8 -2.4
v -0.4 4.6 -2.2
v -0.4 4.6 -2.4
v -0.5 4.6 -2.2
v -0.5 4.6 -2.3
v -0.6 4.6 -2.3
v -0.6 4.6 -2.4
v -0.3 4.7 -2.2
v -0.3 4.7 -2.4
v -0.4 4.7 -2.2
v -0.4 4.7 -2.4
v -0.5 4.7 -2.2
v -0.5 4.7 -2.3
v -0.6 4.7 -2.2
v -0.6 4.7 -2.3
v -0.2 4.8 -2.2
v -0.2 4.8 -2.4
v -0.3 4.8 -2.2
v -0.3 4.8 -2.4
v -0.1 4.9 -2.2
v -0.1 4.9 -2.4
v -0.2 4.9 -2.2
v -0.2 4.9 -2.4
v 0 5 -2.2
v 0 5 -2.4
v -0.1 5 -2.2
v -0.1 5 -2.4
v 0.1 5.1 -2.2
v 0.1 5.1 -2.4
v 0 5.1 -2.2
v 0 5.1 -2.4
v 0.2 5.2 -2.2
v 0.2 5.2 -2.4
v 0.1 5.2 -2.2
v 0.1 5.2 -2.4
v 0.3 5.3 -2.2
v 0.3 5.3 -2.4
v 0.2 5.3 -2.2
v 0.2 5.3 -2.4
v 0.4 5.4 -2.2
v 0.4 5.4 -2.4
v 0.3 5.4 -2.2
v 0.3 5.4 -2.4
v 0.5 5.5 -2.2
v 0.5 5.5 -2.4
v 0.4 5.5 -2.2
v 0.4 5.5 -2.4
v 0.6 5.6 -2.2
v 0.6 5.6 -2.4
v 0.5 5.6 -2.2
v 0.5 5.6 -2.4
v 0.7 5.7 -2.2
v 0.7 5.7 -2.4
v 0.6 5.7 -2.2
v 0.6 5.7 -2.4
v 0.8 5.8 -2.2
v 0.8 5.8 -2.4
v 0.7 5.8 -2.2
v 0.7 5.8 -2.4
v 1 5.9 -2.2
v 1 5.9 -2.4
v 0.9 5.9 -2.1
v 0.9 5.9 -2.2
v 0.9 5.9 -2.4
v 0.9 5.9 -2.5
v 0.8 5.9 -2.1
v 0.8 5.9 -2.2
v 0.8 5.9 -2.4
v 0.8 5.9 -2.5
v 1 6 -2.1
v 1 6 -2.2
v 1 6 -2.4
v 1 6 -2.5
v 0.9 6 -2.1
v 0.9 6 -2.2
v 0.9 6 -2.4
v 0.9 6 -2.5
v 0.8 6 -2.1
v 0.8 6 -2.2
v 0.8 6 -2.4
v 0.8 6 -2.5
v 0.7 6 -2.1
v 0.7 6 -2.2
v 0.7 6 -2.4
v 0.7 6 -2.5
v -0.5 4.8 -2.2
v -0.5 4.8 -2.4
v -0.6 4.8 -2.2
v -0.6 4.8 -2.4
v -0.4 4.9 -2.2
v -0.4 4.9 -2.4
v -0.5 4.9 -2.2
v -0.5 4.9 -2.4
v -0.3 5 -2.2
v -0.3 5 -2.4
v -0.4 5 -2.2
v -0.4 5 -2.4
v -0.2 5.1 -2.2
v -0.2 5.1 -2.4
v -0.3 5.1 -2.2
v -0.3 5.1 -2.4
v -0.1 5.2 -2.2
v -0.1 5.2 -2.4
v -0.2 5.2 -2.2
v -0.2 5.2 -2.4
v 0 5.3 -2.2
v 0 5.3 -2.4
v -0.1 5.3 -2.2
v -0.1 5.3 -2.4
v 0.1 5.4 -2.2
v 0.1 5.4 -2.4
v 0 5.4 -2.2
v 0 5.4 -2.4
v 0.2 5.5 -2.2
v 0.2 5.5 -2.4
v 0.1 5.5 -2.2
v 0.1 5.5 -2.4
v 0.3 5.6 -2.2
v 0.3 5.6 -2.4
v 0.2 5.6 -2.2
v 0.2 5.6 -2.4
v 0.4 5.7 -2.2
v 0.4 5.7 -2.4
v 0.3 5.7 -2.2
v 0.3 5.7 -2.4
v 0.5 5.8 -2.2
v 0.5 5.8 -2.4
v 0.4 5.8 -2.2
v 0.4 5.8 -2.4
v 0.6 5.9 -2.2
v 0.6 5.9 -2.4
v 0.5 5.9 -2.2
v 0.5 5.9 -2.4
v 0.7 6 -2.2
v 0.7 6 -2.4
v 0.6 6 -2.2
v 0.6 6 -2.4
v 1 6.1 -2.1
v 1 6.1 -2.2
v 1 6.1 -2.4
v 1 6.1 -2.5
v 0.9 6.1 -2.1
v 0.9 6.1 -2.2
v 0.9 6.1 -2.4
v 0.9 6.1 -2.5
v 0.8 6.1 -2.1
v 0.8 6.1 -2.2
v 0.8 6.1 -2.4
v 0.8 6.1 -2.5
v 0.7 6.1 -2.1
v 0.7 6.1 -2.2
v 0.7 6.1 -2.4
v 0.7 6.1 -2.5
v 1 6.2 -2.2
v 1 6.2 -2.4
v 0.9 6.2 -2.1
v 0.9 6.2 -2.2
v 0.9 6.2 -2.4
v 0.9 6.2 -2.5
v 0.8 6.2 -2.1
v 0.8 6.2 -2.2
v 0.8 6.2 -2.4
v 0.8 6.2 -2.5
v 0.7 6.2 -2.2
v 0.7 6.2 -2.4

# faces
f 4/2/1 2/2/1 1/2/1
f 5/2/1 2/2/1 4/2/1
f 7/3/1 4/3/1 3/3/1
f 7/3/1 5/3/1 4/3/1
f 8/3/1 5/3/1 7/3/1
f 9/2/1 6/2/1 5/2/1
f 9/3/1 5/3/1 8/3/1
f 10/2/1 6/2/1 9/2/1
f 11/3/1 9/3/1 8/3/1
f 12/3/1 9/3/1 11/3/1
f 16/6/1 14/6/1 13/6/1
f 17/6/1 14/6/1 16/6/1
f 20/6/1 16/6/1 15/6/1
f 20/6/1 17/6/1 16/6/1
f 21/6/1 17/6/1 20/6/1
f 22/5/1 18/5/1 17/5/1
f 22/6/1 17/6/1 21/6/1
f 23/5/1 18/5/1 22/5/1
f 25/6/1 21/6/1 20/6/1
f 25/6/1 20/6/1 19/6/1
f 26/6/1 21/6/1 25/6/1
f 27/5/1 22/5/1 21/5/1
f 27/6/1 21/6/1 26/6/1
f 28/5/1 22/5/1 27/5/1
f 30/6/1 26/6/1 25/6/1
f 30/6/1 25/6/1 24/6/1
f 31/6/1 26/6/1 30/6/1
f 32/5/1 27/5/1 26/5/1
f 32/6/1 26/6/1 31/6/1
f 33/5/1 27/5/1 32/5/1
f 35/6/1 31/6/1 30/6/1
f 35/6/1 30/6/1 29/6/1
f 36/6/1 31/6/1 35/6/1
f 37/5/1 32/5/1 31/5/1
f 37/6/1 31/6/1 36/6/1
f 38/5/1 32/5/1 37/5/1
f 40/6/1 36/6/1 35/6/1
f 40/6/1 35/6/1 34/6/1
f 41/6/1 36/6/1 40/6/1
f 42/5/1 37/5/1 36/5/1
f 42/6/1 36/6/1 41/6/1
f 43/5/1 37/5/1 42/5/1
f 45/6/1 41/6/1 40/6/1
f 45/6/1 40/6/1 39/6/1
f 46/6/1 41/6/1 45/6/1
f 47/5/1 42/5/1 41/5/1
f 47/6/1 41/6/1 46/6/1
f 48/5/1 42/5/1 47/5/1
f 50/6/1 46/6/1 45/6/1
f 50/6/1 45/6/1 44/6/1
f 51/6/1 46/6/1 50/6/1
f 52/5/1 47/5/1 46/5/1
f 52/6/1 46/6/1 51/6/1
f 53/5/1 47/5/1 52/5/1
f 55/6/1 51/6/1 50/6/1
f 55/6/1 50/6/1 49/6/1
f 56/6/1 51/6/1 55/6/1
f 57/5/1 52/5/1 51/5/1
f 57/6/1 51/6/1 56/6/1
f 58/5/1 52/5/1 57/5/1
f 60/6/1 56/6/1 55/6/1
f 60/6/1 55/6/1 54/6/1
f 61/6/1 56/6/1 60/6/1
f 62/5/1 57/5/1 56/5/1
f 62/6/1 56/6/1 61/6/1
f 63/5/1 57/5/1 62/5/1
f 65/6/1 61/6/1 60/6/1
f 65/6/1 60/6/1 59/6/1
f 66/6/1 61/6/1 65/6/1
f 67/5/1 62/5/1 61/5/1
f 67/6/1 61/6/1 66/6/1
f 68/5/1 62/5/1 67/5/1
f 70/6/1 66/6/1 65/6/1
f 70/6/1 65/6/1 64/6/1
f 71/6/1 66/6/1 70/6/1
f 72/5/1 67/5/1 66/5/1
f 72/6/1 66/6/1 71/6/1
f 73/5/1 67/5/1 72/5/1
f 76/1/1 70/1/1 69/1/1
f 77/6/1 71/6/1 70/6/1
f 77/1/1 70/1/1 76/1/1
f 78/5/1 72/5/1 71/5/1
f 78/6/1 71/6/1 77/6/1
f 79/5/1 72/5/1 78/5/1
f 80/3/1 75/3/1 74/3/1
f 81/3/1 75/3/1 80/3/1
f 82/1/1 77/1/1 76/1/1
f 82/1/1 78/1/1 77/1/1
f 83/1/1 78/1/1 82/1/1
f 84/1/1 78/1/1 83/1/1
f 89/4/1 86/4/1 85/4/1
f 90/4/1 86/4/1 89/4/1
f 91/3/1 88/3/1 87/3/1
f 92/3/1 88/3/1 91/3/1
f 95/6/1 94/6/1 93/6/1
f 96/6/1 94/6/1 95/6/1
f 97/6/2 98/6/2 100/6/2
f 100/6/2 98/6/2 101/6/2
f 101/6/2 98/6/2 102/6/2
f 99/6/2 100/6/2 104/6/2
f 100/6/2 101/6/2 104/6/2
f 104/6/2 101/6/2 105/6/2
f 101/5/2 102/5/2 106/5/2
f 105/6/2 101/6/2 106/6/2
f 106/5/2 102/5/2 107/5/2
f 104/6/2 105/6/2 109/6/2
f 103/6/2 104/6/2 109/6/2
f 109/6/2 105/6/2 110/6/2
f 105/5/2 106/5/2 111/5/2
f 110/6/2 105/6/2 111/6/2
f 111/5/2 106/5/2 112/5/2
f 109/6/2 110/6/2 114/6/2
f 108/6/2 109/6/2 114/6/2
f 114/6/2 110/6/2 115/6/2
f 110/5/2 111/5/2 116/5/2
f 115/6/2 110/6/2 116/6/2
f 116/5/2 111/5/2 117/5/2
f 114/6/2 115/6/2 119/6/2
f 113/6/2 114/6/2 119/6/2
f 119/6/2 115/6/2 120/6/2
f 115/5/2 116/5/2 121/5/2
f 120/6/2 115/6/2 121/6/2
f 121/5/2 116/5/2 122/5/2
f 119/6/2 120/6/2 124/6/2
f 118/6/2 119/6/2 124/6/2
f 124/6/2 120/6/2 125/6/2
f 120/5/2 121/5/2 126/5/2
f 125/6/2 120/6/2 126/6/2
f 126/5/2 121/5/2 127/5/2
f 124/6/2 125/6/2 129/6/2
f 123/6/2 124/6/2 129/6/2
f 129/6/2 125/6/2 130/6/2
f 125/5/2 126/5/2 131/5/2
f 130/6/2 125/6/2 131/6/2
f 131/5/2 126/5/2 132/5/2
f 129/6/2 130/6/2 134/6/2
f 128/6/2 129/6/2 134/6/2
f 134/6/2 130/6/2 135/6/2
f 130/5/2 131/5/2 136/5/2
f 135/6/2 130/6/2 136/6/2
f 136/5/2 131/5/2 137/5/2
f 134/6/2 135/6/2 139/6/2
f 133/6/2 134/6/2 139/6/2
f 139/6/2 135/6/2 140/6/2
f 135/5/2 136/5/2 141/5/2
f 140/6/2 135/6/2 141/6/2
f 141/5/2 136/5/2 142/5/2
f 139/6/2 140/6/2 144/6/2
f 138/6/2 139/6/2 144/6/2
f 144/6/2 140/6/2 145/6/2
f 140/5/2 141/5/2 146/5/2
f 145/6/2 140/6/2 146/6/2
f 146/5/2 141/5/2 147/5/2
f 144/6/2 145/6/2 149/6/2
f 143/6/2 144/6/2 149/6/2
f 149/6/2 145/6/2 150/6/2
f 145/5/2 146/5/2 151/5/2
f 150/6/2 145/6/2 151/6/2
f 151/5/2 146/5/2 152/5/2
f 149/6/2 150/6/2 154/6/2
f 148/6/2 149/6/2 154/6/2
f 154/6/2 150/6/2 155/6/2
f 150/5/2 151/5/2 156/5/2
f 155/6/2 150/6/2 156/6/2
f 156/5/2 151/5/2 157/5/2
f 153/1/2 154/1/2 160/1/2
f 154/6/2 155/6/2 161/6/2
f 160/1/2 154/1/2 161/1/2
f 155/5/2 156/5/2 162/5/2
f 161/6/2 155/6/2 162/6/2
f 162/5/2 156/5/2 163/5/2
f 158/3/2 159/3/2 164/3/2
f 164/3/2 159/3/2 165/3/2
f 160/1/2 161/1/2 166/1/2
f 161/1/2 162/1/2 166/1/2
f 166/1/2 162/1/2 167/1/2
f 167/1/2 162/1/2 168/1/2
f 169/4/2 170/4/2 173/4/2
f 173/4/2 170/4/2 174/4/2
f 171/3/2 172/3/2 175/3/2
f 175/3/2 172/3/2 176/3/2
f 177/2/2 178/2/2 180/2/2
f 180/2/2 178/2/2 181/2/2
f 179/3/2 180/3/2 183/3/2
f 180/3/2 181/3/2 183/3/2
f 183/3/2 181/3/2 184/3/2
f 181/2/2 182/2/2 185/2/2
f 184/3/2 181/3/2 185/3/2
f 185/2/2 182/2/2 186/2/2
f 184/3/2 185/3/2 187/3/2
f 187/3/2 185/3/2 188/3/2
f 192/3/3 190/3/3 189/3/3
f 193/3/3 190/3/3 192/3/3
f 195/3/3 192/3/3 191/3/3
f 196/4/3 194/4/3 193/4/3
f 196/3/3 192/3/3 195/3/3
f 196/4/3 193/4/3 192/4/3
f 197/4/3 194/4/3 196/4/3
f 198/4/3 194/4/3 197/4/3
f 199/3/3 197/3/3 196/3/3
f 200/3/3 197/3/3 199/3/3
f 205/2/3 202/2/3 201/2/3
f 206/2/3 202/2/3 205/2/3
f 207/3/3 204/3/3 203/3/3
f 208/3/3 204/3/3 207/3/3
f 213/2/3 210/2/3 209/2/3
f 214/2/3 210/2/3 213/2/3
f 215/3/3 212/3/3 211/3/3
f 216/3/3 212/3/3 215/3/3
f 219/1/3 218/1/3 217/1/3
f 220/1/3 218/1/3 219/1/3
f 223/6/3 222/6/3 221/6/3
f 224/6/3 222/6/3 223/6/3
f 227/6/3 226/6/3 225/6/3
f 228/6/3 226/6/3 227/6/3
f 231/6/3 230/6/3 229/6/3
f 232/6/3 230/6/3 231/6/3
f 235/6/3 234/6/3 233/6/3
f 236/6/3 234/6/3 235/6/3
f 239/6/3 238/6/3 237/6/3
f 240/6/3 238/6/3 239/6/3
f 243/6/3 242/6/3 241/6/3
f 244/6/3 242/6/3 243/6/3
f 247/6/3 246/6/3 245/6/3
f 248/6/3 246/6/3 247/6/3
f 251/6/3 250/6/3 249/6/3
f 252/6/3 250/6/3 251/6/3
f 255/6/3 254/6/3 253/6/3
f 256/6/3 254/6/3 255/6/3
f 259/6/3 258/6/3 257/6/3
f 260/6/3 258/6/3 259/6/3
f 263/6/3 262/6/3 261/6/3
f 264/6/3 262/6/3 263/6/3
f 267/6/3 266/6/3 265/6/3
f 268/6/3 266/6/3 267/6/3
f 269/2/4 270/2/4 273/2/4
f 273/2/4 270/2/4 274/2/4
f 271/3/4 272/3/4 275/3/4
f 275/3/4 272/3/4 276/3/4
f 277/2/4 278/2/4 281/2/4
f 281/2/4 278/2/4 282/2/4
f 279/3/4 280/3/4 283/3/4
f 283/3/4 280/3/4 284/3/4
f 285/2/4 286/2/4 287/2/4
f 287/2/4 286/2/4 288/2/4
f 287/4/4 288/4/4 290/4/4
f 288/3/4 289/3/4 291/3/4
f 290/4/4 288/4/4 291/4/4
f 291/3/4 289/3/4 292/3/4
f 290/2/4 291/2/4 293/2/4
f 293/2/4 291/2/4 294/2/4
f 295/1/4 296/1/4 297/1/4
f 297/1/4 296/1/4 298/1/4
f 299/5/4 300/5/4 301/5/4
f 301/5/4 300/5/4 302/5/4
f 303/5/4 304/5/4 305/5/4
f 305/5/4 304/5/4 306/5/4
f 307/5/4 308/5/4 309/5/4
f 309/5/4 308/5/4 310/5/4
f 311/5/4 312/5/4 313/5/4
f 313/5/4 312/5/4 314/5/4
f 315/5/4 316/5/4 317/5/4
f 317/5/4 316/5/4 318/5/4
f 319/5/4 320/5/4 321/5/4
f 321/5/4 320/5/4 322/5/4
f 323/5/4 324/5/4 325/5/4
f 325/5/4 324/5/4 326/5/4
f 327/5/4 328/5/4 329/5/4
f 329/5/4 328/5/4 330/5/4
f 331/5/4 332/5/4 333/5/4
f 333/5/4 332/5/4 334/5/4
f 335/5/4 336/5/4 337/5/4
f 337/5/4 336/5/4 338/5/4
f 339/6/4 340/6/4 343/6/4
f 343/6/4 340/6/4 344/6/4
f 341/5/4 342/5/4 345/5/4
f 345/5/4 342/5/4 346/5/4
f 347/5/4 348/5/4 350/5/4
f 349/6/4 350/6/4 351/6/4
f 350/5/4 348/5/4 352/5/4
f 351/6/4 350/6/4 352/6/4
f 352/5/4 348/5/4 353/5/4
f 356/6/5 355/6/5 354/6/5
f 357/6/5 355/6/5 356/6/5
f 358/6/5 355/6/5 357/6/5
f 359/6/5 355/6/5 358/6/5
f 362/6/5 361/6/5 360/6/5
f 363/6/5 361/6/5 362/6/5
f 366/5/5 365/5/5 364/5/5
f 367/5/5 365/5/5 366/5/5
f 370/6/5 369/6/5 368/6/5
f 371/6/5 369/6/5 370/6/5
f 374/6/5 373/6/5 372/6/5
f 375/6/5 373/6/5 374/6/5
f 378/6/5 377/6/5 376/6/5
f 379/6/5 377/6/5 378/6/5
f 382/6/5 381/6/5 380/6/5
f 383/6/5 381/6/5 382/6/5
f 386/6/5 385/6/5 384/6/5
f 387/6/5 385/6/5 386/6/5
f 390/6/5 389/6/5 388/6/5
f 391/6/5 389/6/5 390/6/5
f 394/6/5 393/6/5 392/6/5
f 395/6/5 393/6/5 394/6/5
f 398/6/5 397/6/5 396/6/5
f 399/6/5 397/6/5 398/6/5
f 402/6/5 401/6/5 400/6/5
f 403/6/5 401/6/5 402/6/5
f 406/6/5 405/6/5 404/6/5
f 407/6/5 405/6/5 406/6/5
f 410/1/5 409/1/5 408/1/5
f 411/1/5 409/1/5 410/1/5
f 415/3/5 413/3/5 412/3/5
f 416/3/5 413/3/5 415/3/5
f 418/2/5 415/2/5 414/2/5
f 419/4/5 416/4/5 415/4/5
f 419/2/5 415/2/5 418/2/5
f 420/2/5 417/2/5 416/2/5
f 420/4/5 416/4/5 419/4/5
f 421/2/5 417/2/5 420/2/5
f 426/3/5 423/3/5 422/3/5
f 427/3/5 423/3/5 426/3/5
f 428/3/5 425/3/5 424/3/5
f 429/3/5 425/3/5 428/3/5
f 434/2/5 431/2/5 430/2/5
f 435/2/5 431/2/5 434/2/5
f 436/2/5 433/2/5 432/2/5
f 437/2/5 433/2/5 436/2/5
f 438/5/6 439/5/6 440/5/6
f 440/5/6 439/5/6 441/5/6
f 442/5/6 443/5/6 444/5/6
f 444/5/6 443/5/6 445/5/6
f 446/5/6 447/5/6 448/5/6
f 448/5/6 447/5/6 449/5/6
f 450/5/6 451/5/6 452/5/6
f 452/5/6 451/5/6 453/5/6
f 454/5/6 455/5/6 456/5/6
f 456/5/6 455/5/6 457/5/6
f 458/5/6 459/5/6 460/5/6
f 460/5/6 459/5/6 461/5/6
f 462/5/6 463/5/6 464/5/6
f 464/5/6 463/5/6 465/5/6
f 466/5/6 467/5/6 468/5/6
f 468/5/6 467/5/6 469/5/6
f 470/5/6 471/5/6 472/5/6
f 472/5/6 471/5/6 473/5/6
f 474/5/6 475/5/6 476/5/6
f 476/5/6 475/5/6 477/5/6
f 478/5/6 479/5/6 480/5/6
f 480/5/6 479/5/6 481/5/6
f 482/5/6 483/5/6 484/5/6
f 484/5/6 483/5/6 485/5/6
f 486/1/6 487/1/6 488/1/6
f 488/1/6 487/1/6 489/1/6
f 490/3/6 491/3/6 494/3/6
f 494/3/6 491/3/6 495/3/6
f 492/3/6 493/3/6 496/3/6
f 496/3/6 493/3/6 497/3/6
f 498/2/6 499/2/6 502/2/6
f 502/2/6 499/2/6 503/2/6
f 500/2/6 501/2/6 504/2/6
f 504/2/6 501/2/6 505/2/6
f 506/4/6 507/4/6 509/4/6
f 509/4/6 507/4/6 510/4/6
f 508/3/6 509/3/6 512/3/6
f 509/4/6 510/4/6 513/4/6
f 512/3/6 509/3/6 513/3/6
f 510/3/6 511/3/6 514/3/6
f 513/4/6 510/4/6 514/4/6
f 514/3/6 511/3/6 515/3/6
f 513/3/6 514/3/6 516/3/6
f 516/3/6 514/3/6 517/3/6
