# MagicaVoxel @ Ephtracy

# group
o Handle 3

# material
mtllib SlotMachine-0-Handle 3.mtl
usemtl SlotMachine_d

# normals
vn 0 0 1
vn 0 0 -1
vn 1 0 0
vn -1 0 0
vn 0 -1 0
vn 0 1 0

# texcoords
vt 0.255859 0.5
vt 0.263672 0.5
vt 0.271484 0.5
vt 0.279297 0.5
vt 0.673828 0.5
vt 0.685547 0.5

# verts
v 1.5 4.5 -2.1
v 1.4 4.5 -2.1
v 1.3 4.5 -2.1
v 1.5 4.7 -2.1
v 1.4 4.7 -2.1
v 1.3 4.7 -2.1
v 1.5 4.4 -2.2
v 1.4 4.4 -2.2
v 1.3 4.4 -2.2
v 1.6 4.5 -2.2
v 1.5 4.5 -2.2
v 1.4 4.5 -2.2
v 1.3 4.5 -2.2
v 1.2 4.5 -2.2
v -0.5 4.5 -2.2
v 1.2 4.6 -2.2
v -0.5 4.6 -2.2
v 1.6 4.7 -2.2
v 1.5 4.7 -2.2
v 1.4 4.7 -2.2
v 1.3 4.7 -2.2
v 1.2 4.7 -2.2
v -0.5 4.7 -2.2
v 1.5 4.8 -2.2
v 1.4 4.8 -2.2
v 1.3 4.8 -2.2
v -0.5 4.5 -2.3
v -0.6 4.5 -2.3
v -0.5 4.6 -2.3
v -0.6 4.6 -2.3
v -0.5 4.7 -2.3
v -0.6 4.7 -2.3
v 1.5 4.4 -2.4
v 1.4 4.4 -2.4
v 1.3 4.4 -2.4
v 1.6 4.5 -2.4
v 1.5 4.5 -2.4
v 1.4 4.5 -2.4
v 1.3 4.5 -2.4
v 1.2 4.5 -2.4
v -0.6 4.5 -2.4
v 1.2 4.6 -2.4
v -0.6 4.6 -2.4
v 1.6 4.7 -2.4
v 1.5 4.7 -2.4
v 1.4 4.7 -2.4
v 1.3 4.7 -2.4
v 1.2 4.7 -2.4
v -0.6 4.7 -2.4
v 1.5 4.8 -2.4
v 1.4 4.8 -2.4
v 1.3 4.8 -2.4
v 1.5 4.5 -2.5
v 1.4 4.5 -2.5
v 1.3 4.5 -2.5
v 1.5 4.7 -2.5
v 1.4 4.7 -2.5
v 1.3 4.7 -2.5
v 1.6 4.5 -2.2
v 1.6 4.7 -2.2
v 1.6 4.5 -2.4
v 1.6 4.7 -2.4
v 1.5 4.5 -2.1
v 1.5 4.7 -2.1
v 1.5 4.4 -2.2
v 1.5 4.5 -2.2
v 1.5 4.7 -2.2
v 1.5 4.8 -2.2
v 1.5 4.4 -2.4
v 1.5 4.5 -2.4
v 1.5 4.7 -2.4
v 1.5 4.8 -2.4
v 1.5 4.5 -2.5
v 1.5 4.7 -2.5
v 1.3 4.5 -2.1
v 1.3 4.7 -2.1
v 1.3 4.4 -2.2
v 1.3 4.5 -2.2
v 1.3 4.7 -2.2
v 1.3 4.8 -2.2
v 1.3 4.4 -2.4
v 1.3 4.5 -2.4
v 1.3 4.7 -2.4
v 1.3 4.8 -2.4
v 1.3 4.5 -2.5
v 1.3 4.7 -2.5
v -0.5 4.5 -2.2
v -0.5 4.6 -2.2
v -0.5 4.7 -2.2
v -0.5 4.5 -2.3
v -0.5 4.6 -2.3
v -0.5 4.7 -2.3
v -0.6 4.5 -2.3
v -0.6 4.6 -2.3
v -0.6 4.7 -2.3
v -0.6 4.5 -2.4
v -0.6 4.6 -2.4
v -0.6 4.7 -2.4
v 1.5 4.4 -2.2
v 1.5 4.4 -2.4
v 1.4 4.4 -2.2
v 1.4 4.4 -2.4
v 1.3 4.4 -2.2
v 1.3 4.4 -2.4
v 1.6 4.5 -2.2
v 1.6 4.5 -2.4
v 1.5 4.5 -2.1
v 1.5 4.5 -2.2
v 1.5 4.5 -2.4
v 1.5 4.5 -2.5
v 1.4 4.5 -2.1
v 1.4 4.5 -2.2
v 1.4 4.5 -2.4
v 1.4 4.5 -2.5
v 1.3 4.5 -2.1
v 1.3 4.5 -2.2
v 1.3 4.5 -2.4
v 1.3 4.5 -2.5
v 1.2 4.5 -2.2
v 1.2 4.5 -2.4
v -0.5 4.5 -2.2
v -0.5 4.5 -2.3
v -0.6 4.5 -2.3
v -0.6 4.5 -2.4
v 1.6 4.7 -2.2
v 1.6 4.7 -2.4
v 1.5 4.7 -2.1
v 1.5 4.7 -2.2
v 1.5 4.7 -2.4
v 1.5 4.7 -2.5
v 1.4 4.7 -2.1
v 1.4 4.7 -2.2
v 1.4 4.7 -2.4
v 1.4 4.7 -2.5
v 1.3 4.7 -2.1
v 1.3 4.7 -2.2
v 1.3 4.7 -2.4
v 1.3 4.7 -2.5
v 1.2 4.7 -2.2
v 1.2 4.7 -2.4
v -0.5 4.7 -2.2
v -0.5 4.7 -2.3
v -0.6 4.7 -2.3
v -0.6 4.7 -2.4
v 1.5 4.8 -2.2
v 1.5 4.8 -2.4
v 1.4 4.8 -2.2
v 1.4 4.8 -2.4
v 1.3 4.8 -2.2
v 1.3 4.8 -2.4

# faces
f 4/3/1 2/3/1 1/3/1
f 5/2/1 3/2/1 2/2/1
f 5/3/1 2/3/1 4/3/1
f 6/2/1 3/2/1 5/2/1
f 11/3/1 8/3/1 7/3/1
f 12/2/1 9/2/1 8/2/1
f 12/3/1 8/3/1 11/3/1
f 13/2/1 9/2/1 12/2/1
f 16/6/1 15/6/1 14/6/1
f 16/1/1 14/1/1 13/1/1
f 17/6/1 15/6/1 16/6/1
f 18/4/1 11/4/1 10/4/1
f 19/4/1 11/4/1 18/4/1
f 21/1/1 16/1/1 13/1/1
f 22/5/1 17/5/1 16/5/1
f 22/1/1 16/1/1 21/1/1
f 23/5/1 17/5/1 22/5/1
f 24/3/1 20/3/1 19/3/1
f 25/2/1 21/2/1 20/2/1
f 25/3/1 20/3/1 24/3/1
f 26/2/1 21/2/1 25/2/1
f 29/6/1 28/6/1 27/6/1
f 30/6/1 28/6/1 29/6/1
f 31/5/1 30/5/1 29/5/1
f 32/5/1 30/5/1 31/5/1
f 33/3/2 34/3/2 37/3/2
f 34/2/2 35/2/2 38/2/2
f 37/3/2 34/3/2 38/3/2
f 38/2/2 35/2/2 39/2/2
f 40/6/2 41/6/2 42/6/2
f 39/1/2 40/1/2 42/1/2
f 42/6/2 41/6/2 43/6/2
f 36/4/2 37/4/2 44/4/2
f 44/4/2 37/4/2 45/4/2
f 39/1/2 42/1/2 47/1/2
f 42/5/2 43/5/2 48/5/2
f 47/1/2 42/1/2 48/1/2
f 48/5/2 43/5/2 49/5/2
f 45/3/2 46/3/2 50/3/2
f 46/2/2 47/2/2 51/2/2
f 50/3/2 46/3/2 51/3/2
f 51/2/2 47/2/2 52/2/2
f 53/3/2 54/3/2 56/3/2
f 54/2/2 55/2/2 57/2/2
f 56/3/2 54/3/2 57/3/2
f 57/2/2 55/2/2 58/2/2
f 61/4/3 60/4/3 59/4/3
f 62/4/3 60/4/3 61/4/3
f 66/3/3 64/3/3 63/3/3
f 67/3/3 64/3/3 66/3/3
f 69/3/3 66/3/3 65/3/3
f 70/3/3 66/3/3 69/3/3
f 71/3/3 68/3/3 67/3/3
f 72/3/3 68/3/3 71/3/3
f 73/3/3 71/3/3 70/3/3
f 74/3/3 71/3/3 73/3/3
f 75/2/4 76/2/4 78/2/4
f 78/2/4 76/2/4 79/2/4
f 77/2/4 78/2/4 81/2/4
f 81/2/4 78/2/4 82/2/4
f 79/2/4 80/2/4 83/2/4
f 83/2/4 80/2/4 84/2/4
f 82/2/4 83/2/4 85/2/4
f 85/2/4 83/2/4 86/2/4
f 87/6/4 88/6/4 90/6/4
f 88/5/4 89/5/4 91/5/4
f 90/6/4 88/6/4 91/6/4
f 91/5/4 89/5/4 92/5/4
f 93/6/4 94/6/4 96/6/4
f 94/5/4 95/5/4 97/5/4
f 96/6/4 94/6/4 97/6/4
f 97/5/4 95/5/4 98/5/4
f 101/3/5 100/3/5 99/3/5
f 102/3/5 100/3/5 101/3/5
f 103/2/5 102/2/5 101/2/5
f 104/2/5 102/2/5 103/2/5
f 108/4/5 106/4/5 105/4/5
f 109/4/5 106/4/5 108/4/5
f 111/3/5 108/3/5 107/3/5
f 112/3/5 108/3/5 111/3/5
f 113/3/5 110/3/5 109/3/5
f 114/3/5 110/3/5 113/3/5
f 115/2/5 112/2/5 111/2/5
f 116/2/5 112/2/5 115/2/5
f 117/2/5 114/2/5 113/2/5
f 118/2/5 114/2/5 117/2/5
f 119/1/5 117/1/5 116/1/5
f 120/1/5 117/1/5 119/1/5
f 121/6/5 120/6/5 119/6/5
f 122/6/5 120/6/5 121/6/5
f 123/6/5 120/6/5 122/6/5
f 124/6/5 120/6/5 123/6/5
f 125/4/6 126/4/6 128/4/6
f 128/4/6 126/4/6 129/4/6
f 127/3/6 128/3/6 131/3/6
f 131/3/6 128/3/6 132/3/6
f 129/3/6 130/3/6 133/3/6
f 133/3/6 130/3/6 134/3/6
f 131/2/6 132/2/6 135/2/6
f 135/2/6 132/2/6 136/2/6
f 133/2/6 134/2/6 137/2/6
f 137/2/6 134/2/6 138/2/6
f 136/1/6 137/1/6 139/1/6
f 139/1/6 137/1/6 140/1/6
f 139/5/6 140/5/6 141/5/6
f 141/5/6 140/5/6 142/5/6
f 142/5/6 140/5/6 143/5/6
f 143/5/6 140/5/6 144/5/6
f 145/3/6 146/3/6 147/3/6
f 147/3/6 146/3/6 148/3/6
f 147/2/6 148/2/6 149/2/6
f 149/2/6 148/2/6 150/2/6
